<?xml version="1.0" encoding="UTF-8"?>
<svg width="28px" height="28px" viewBox="0 0 28 28" version="1.1" xmlns="http://www.w3.org/2000/svg" xmlns:xlink="http://www.w3.org/1999/xlink">
    <title>delete-white</title>
    <g id="delete-white" stroke="none" stroke-width="1" fill="none" fill-rule="evenodd">
        <g id="Group">
            <circle id="Oval" fill="#FFFFFF" cx="14" cy="14" r="14"></circle>
            <path d="M14,5.76470588 C14.9096455,5.76470588 15.6470588,6.50211924 15.6470588,7.41176471 L15.6470588,20.5882353 C15.6470588,21.4978808 14.9096455,22.2352941 14,22.2352941 C13.0903545,22.2352941 12.3529412,21.4978808 12.3529412,20.5882353 L12.3529412,7.41176471 C12.3529412,6.50211924 13.0903545,5.76470588 14,5.76470588 Z" id="Rectangle" fill="#000000" transform="translate(14.000000, 14.000000) rotate(-45.000000) translate(-14.000000, -14.000000) "></path>
            <path d="M14,5.76470588 C14.9096455,5.76470588 15.6470588,6.50211924 15.6470588,7.41176471 L15.6470588,20.5882353 C15.6470588,21.4978808 14.9096455,22.2352941 14,22.2352941 C13.0903545,22.2352941 12.3529412,21.4978808 12.3529412,20.5882353 L12.3529412,7.41176471 C12.3529412,6.50211924 13.0903545,5.76470588 14,5.76470588 Z" id="Rectangle" fill="#000000" transform="translate(14.000000, 14.000000) rotate(-315.000000) translate(-14.000000, -14.000000) "></path>
        </g>
    </g>
</svg>