<?xml version="1.0" encoding="UTF-8"?>
<svg width="26px" height="26px" viewBox="0 0 26 26" version="1.1" xmlns="http://www.w3.org/2000/svg" xmlns:xlink="http://www.w3.org/1999/xlink">
    <title>delete-white</title>
    <g id="delete-white" stroke="none" stroke-width="1" fill="none" fill-rule="evenodd">
        <g id="Group">
            <circle id="Oval" fill="#FFFFFF" cx="13" cy="13" r="13"></circle>
            <path d="M13,5.35294118 C13.8446708,5.35294118 14.5294118,6.03768215 14.5294118,6.88235294 L14.5294118,19.1176471 C14.5294118,19.9623179 13.8446708,20.6470588 13,20.6470588 C12.1553292,20.6470588 11.4705882,19.9623179 11.4705882,19.1176471 L11.4705882,6.88235294 C11.4705882,6.03768215 12.1553292,5.35294118 13,5.35294118 Z" id="Rectangle" fill="#000000" transform="translate(13.000000, 13.000000) rotate(-45.000000) translate(-13.000000, -13.000000) "></path>
            <path d="M13,5.35294118 C13.8446708,5.35294118 14.5294118,6.03768215 14.5294118,6.88235294 L14.5294118,19.1176471 C14.5294118,19.9623179 13.8446708,20.6470588 13,20.6470588 C12.1553292,20.6470588 11.4705882,19.9623179 11.4705882,19.1176471 L11.4705882,6.88235294 C11.4705882,6.03768215 12.1553292,5.35294118 13,5.35294118 Z" id="Rectangle" fill="#000000" transform="translate(13.000000, 13.000000) rotate(-315.000000) translate(-13.000000, -13.000000) "></path>
        </g>
    </g>
</svg>