<?xml version="1.0" encoding="UTF-8"?>
<svg width="49px" height="50px" viewBox="0 0 49 50" version="1.1" xmlns="http://www.w3.org/2000/svg" xmlns:xlink="http://www.w3.org/1999/xlink">
    <title>heart</title>
    <g id="heart" stroke="none" stroke-width="1" fill="none" fill-rule="evenodd">
        <g id="delete" transform="translate(24.355339, 25.066017) rotate(-360.000000) translate(-24.355339, -25.066017) translate(-0.644661, 0.066017)" fill="#98CA3B">
            <circle id="Oval" cx="25" cy="25" r="25"></circle>
        </g>
        <path d="M29.6886724,15.0660172 C33.3705707,15.0660172 36.3553391,18.1328666 36.3553391,21.9160172 C36.3553391,24.0121579 35.4390252,25.8883965 33.9955214,27.1449085 L25.0695054,36.2522105 C24.6829193,36.6466337 24.0497862,36.652987 23.6553631,36.2664009 C23.6505856,36.2617183 23.6458552,36.256988 23.6411727,36.2522105 L14.7151568,27.1449085 C13.2716529,25.8883965 12.3553391,24.0121579 12.3553391,21.9160172 C12.3553391,18.1328666 15.3401074,15.0660172 19.0220057,15.0660172 C21.2027141,15.0660172 23.1388738,16.1418482 24.3551881,17.8051429 C25.5718044,16.1418482 27.507964,15.0660172 29.6886724,15.0660172 Z" id="Combined-Shape" fill="#FFFFFF"></path>
    </g>
</svg>