<?xml version="1.0" encoding="UTF-8" standalone="no"?>
<!DOCTYPE svg PUBLIC "-//W3C//DTD SVG 1.1//EN" "http://www.w3.org/Graphics/SVG/1.1/DTD/svg11.dtd">
<svg width="100%" height="100%" viewBox="0 0 45 50" version="1.1" xmlns="http://www.w3.org/2000/svg" xmlns:xlink="http://www.w3.org/1999/xlink" xml:space="preserve" xmlns:serif="http://www.serif.com/" style="fill-rule:evenodd;clip-rule:evenodd;stroke-linejoin:round;stroke-miterlimit:2;">
    <g transform="matrix(2.63158,0,0,2.63158,-5.26316,-2.3833)">
        <path d="M5.735,19.906C5.166,19.906 4.738,19.661 4.738,19.06L3.529,5.903L2.717,5.903C2.406,5.903 2.204,5.457 2.153,5.306C2.153,5.306 1.808,4.4 2.153,4.112C2.376,3.925 4.446,3.64 6.62,3.444L7.78,1.317C7.858,1.174 8.185,1.129 8.199,1.127C9.352,0.974 9.927,0.903 10.5,0.906L10.554,0.906C11.11,0.908 11.684,0.979 12.801,1.127C12.815,1.129 13.142,1.174 13.22,1.317L14.38,3.444C16.554,3.64 18.624,3.925 18.847,4.112C19.192,4.4 18.847,5.306 18.847,5.306C18.796,5.457 18.594,5.903 18.283,5.903L17.471,5.903L16.262,19.06C16.262,19.661 15.834,19.906 15.265,19.906L5.735,19.906ZM9.808,7.971C9.809,7.764 9.972,7.596 10.171,7.596L10.892,7.596C11.091,7.596 11.251,7.765 11.25,7.972C11.059,11.039 11.039,14.122 11.193,17.221C11.192,17.429 11.029,17.597 10.83,17.597L10.109,17.596C9.91,17.596 9.75,17.428 9.751,17.221C9.885,14.129 9.916,11.046 9.808,7.971ZM7.897,8.213C7.882,8.015 7.709,7.864 7.511,7.878L6.791,7.927C6.593,7.94 6.443,8.112 6.458,8.31C6.845,11.236 7.063,14.188 7.107,17.167C7.122,17.365 7.295,17.515 7.494,17.502L8.213,17.453C8.412,17.44 8.561,17.268 8.546,17.069C8.215,14.117 7.987,11.165 7.897,8.213ZM13.107,8.213C13.122,8.015 13.295,7.864 13.494,7.878L14.213,7.927C14.412,7.94 14.561,8.112 14.546,8.31C14.159,11.236 13.941,14.188 13.897,17.167C13.882,17.365 13.709,17.515 13.511,17.502L12.791,17.453C12.593,17.44 12.443,17.268 12.458,17.069C12.79,14.117 13.018,11.165 13.107,8.213ZM12.262,2.826C11.853,2.404 9.161,2.39 8.738,2.826C8.665,2.901 8.583,3.181 8.494,3.301C9.241,3.255 9.936,3.228 10.5,3.228L10.553,3.228C11.107,3.23 11.783,3.257 12.506,3.301C12.417,3.181 12.335,2.901 12.262,2.826Z" style="fill:rgba(0,0,0,0.75);"/>
    </g>
</svg>
