<?xml version="1.0" encoding="UTF-8"?>
<svg width="49px" height="50px" viewBox="0 0 49 50" version="1.1" xmlns="http://www.w3.org/2000/svg" xmlns:xlink="http://www.w3.org/1999/xlink">
    <title>plus</title>
    <g id="plus" stroke="none" stroke-width="1" fill="none" fill-rule="evenodd">
        <circle id="Oval" fill="#D63906" cx="24.3553391" cy="25.3553391" r="25"></circle>
        <path d="M23.9141626,10.6494567 L24.7965155,10.6494567 C26.1772274,10.6494567 27.2965155,11.7687448 27.2965155,13.1494567 L27.2965155,37.5612214 C27.2965155,38.9419333 26.1772274,40.0612214 24.7965155,40.0612214 L23.9141626,40.0612214 C22.5334507,40.0612214 21.4141626,38.9419333 21.4141626,37.5612214 L21.4141626,13.1494567 C21.4141626,11.7687448 22.5334507,10.6494567 23.9141626,10.6494567 Z" id="Rectangle" fill="#FFFFFF" transform="translate(24.355339, 25.355339) rotate(-360.000000) translate(-24.355339, -25.355339) "></path>
        <path d="M23.9141626,10.6494567 L24.7965155,10.6494567 C26.1772274,10.6494567 27.2965155,11.7687448 27.2965155,13.1494567 L27.2965155,37.5612214 C27.2965155,38.9419333 26.1772274,40.0612214 24.7965155,40.0612214 L23.9141626,40.0612214 C22.5334507,40.0612214 21.4141626,38.9419333 21.4141626,37.5612214 L21.4141626,13.1494567 C21.4141626,11.7687448 22.5334507,10.6494567 23.9141626,10.6494567 Z" id="Rectangle" fill="#FFFFFF" transform="translate(24.355339, 25.355339) rotate(-630.000000) translate(-24.355339, -25.355339) "></path>
    </g>
</svg>